<?xml version="1.0" encoding="UTF-8"?><svg xmlns="http://www.w3.org/2000/svg" xmlns:xlink="http://www.w3.org/1999/xlink" height="688.0" preserveAspectRatio="xMidYMid meet" version="1.0" viewBox="0.0 0.0 1681.9 688.0" width="1681.9" zoomAndPan="magnify"><g id="change1_1"><path d="M1640.8,0h-12.5c29.5,0,53.6,24.1,53.6,53.6V41.1C1681.9,18.5,1663.4,0,1640.8,0z" fill="inherit"/><path d="M1628.3,688h12.5c22.6,0,41.1-18.5,41.1-41.1v-12.5C1681.9,663.9,1657.8,688,1628.3,688z" fill="inherit"/><path d="M53.6,0H41.1C18.5,0,0,18.5,0,41.1v12.5C0,24.1,24.1,0,53.6,0z" fill="inherit"/><path d="M0,634.4v12.5C0,669.5,18.5,688,41.1,688h12.5C24.1,688,0,663.9,0,634.4z" fill="inherit"/><path d="M1665.8,672c10.1-10.1,15.6-23.4,15.6-37.5V53.6c0-14.1-5.5-27.5-15.6-37.5c-10.1-10.1-23.4-15.6-37.5-15.6H53.6 C39.5,0.4,26.1,6,16,16C6,26.1,0.4,39.5,0.4,53.6v580.8C0.4,648.5,6,661.9,16,672c10.1,10.1,23.4,15.6,37.5,15.6h1574.7 C1642.4,687.6,1655.8,682,1665.8,672z M447.2,592.7H127.8V95.3h307.8v84.1H265.4v114.4h160.7v80.4H265.4v134.3h181.7V592.7z M769.6,592.7l-44.1-91.5c-13.7-28.8-26.3-56.8-37.8-88.6h-3.2c-11.6,31.7-22.1,62-32.6,90l-37.8,90H477.6L610,338.1L482.9,95.3 h142.9l42,92.2c10.5,25.8,21,51.7,31.5,79.7h2.1c11.6-30.3,21-53.9,30.5-81.2l35.7-90.8h137.6L772.8,342.5l139.7,250.2H769.6z M1106.8,592.7H969.2V95.3h137.6V592.7z M1570.1,184.6H1444v408.1h-137.6V184.6h-125V95.3h388.7V184.6z" fill="inherit"/></g></svg>