<?xml version="1.0" encoding="UTF-8" standalone="no"?><svg xmlns="http://www.w3.org/2000/svg" xmlns:xlink="http://www.w3.org/1999/xlink" fill="#000000" height="82.3" preserveAspectRatio="xMidYMid meet" version="1" viewBox="-0.1 -0.0 400.9 82.3" width="400.9" zoomAndPan="magnify"><g id="change1_1"><path d="M400.559,36.627c-0.02-0.211-0.039-0.422-0.06-0.632c0.013,0.133,0.003,0.022-0.023-0.139 c-0.083-0.52-0.167-1.039-0.251-1.559c-0.247-1.537-0.618-3.05-1.051-4.544c-0.219-0.752-0.441-1.487-0.703-2.226 c-0.176-0.494-0.351-0.988-0.526-1.482c-0.011-0.029-0.016-0.044-0.017-0.049c-0.006-0.016-0.014-0.032-0.023-0.055 c-0.088-0.201-0.175-0.402-0.263-0.604c-0.631-1.45-1.266-2.919-2.078-4.279c-0.416-0.697-0.805-1.421-1.261-2.093 c-0.308-0.455-0.616-0.909-0.924-1.363c-0.122-0.181-0.245-0.361-0.367-0.542c-0.046-0.067-0.061-0.091-0.062-0.095 c0,0,0,0,0-0.001c-1.056-1.363-2.134-2.668-3.271-3.965c-1.096-1.25-2.402-2.334-3.649-3.426c-0.604-0.528-1.261-0.999-1.893-1.492 c-0.057-0.043-0.475-0.347-0.248-0.193c-0.11-0.075-0.222-0.15-0.333-0.226c-0.436-0.296-0.872-0.593-1.309-0.889 c-1.276-0.868-2.637-1.61-4.006-2.32c-0.695-0.361-1.379-0.689-2.1-0.997c-0.455-0.194-0.91-0.389-1.366-0.583 c0.119,0.051,0.013,0.01-0.137-0.044c-0.224-0.081-0.447-0.162-0.671-0.242c-1.478-0.535-2.971-1.05-4.507-1.395 c-0.786-0.176-1.573-0.392-2.369-0.515c-0.561-0.087-1.12-0.174-1.68-0.261c-0.194-0.03-0.388-0.061-0.581-0.09 c-0.005-0.001-0.008-0.001-0.012-0.002c-0.017-0.001-0.046-0.003-0.096-0.008c-1.699-0.159-3.373-0.26-5.078-0.317 c-1.378,0-2.755,0-4.132,0c-9.719,0-19.437,0-29.154,0c-16.491,0-32.983,0-49.475,0c-20.251,0-40.502,0-60.753,0 c-20.997,0-41.994,0-62.991,0c-18.729,0-37.458,0-56.188,0C83.507,0,70.059,0,56.612,0c-5.152,0-10.305,0-15.457,0 c-1.055,0.035-2.114,0.04-3.166,0.139c-0.668,0.063-1.337,0.125-2.005,0.188c-0.016,0.002-0.037,0.005-0.063,0.01 c-0.131,0.02-0.263,0.041-0.395,0.061c-0.369,0.057-0.738,0.114-1.107,0.171c-2.063,0.318-4.183,0.795-6.148,1.505 c-0.517,0.187-1.034,0.374-1.551,0.561c-0.206,0.074-0.411,0.148-0.617,0.223c-0.069,0.025-0.098,0.035-0.105,0.036c0,0,0,0,0,0 c-0.772,0.33-1.587,0.614-2.334,0.998c-1.531,0.788-3.018,1.604-4.502,2.478c-1.399,0.824-2.688,1.873-3.97,2.863 c-0.057,0.043-0.455,0.375-0.25,0.194c-0.106,0.093-0.212,0.187-0.318,0.281c-0.405,0.357-0.81,0.715-1.215,1.073 c-0.589,0.521-1.133,1.084-1.689,1.64c-1.104,1.104-2.121,2.288-3.075,3.522c-0.28,0.362-0.561,0.725-0.841,1.086 c0.168-0.217-0.079,0.129-0.111,0.177c-0.142,0.21-0.284,0.419-0.426,0.629C6.827,18.481,6.397,19.12,6,19.792 c-0.803,1.36-1.626,2.736-2.249,4.191c-0.227,0.532-0.454,1.062-0.682,1.593c-0.067,0.157-0.134,0.313-0.201,0.471 c0.051-0.118,0.009-0.013-0.045,0.138c-0.278,0.77-0.606,1.536-0.834,2.322c-0.48,1.654-0.901,3.295-1.281,4.976 c-0.186,0.821-0.261,1.684-0.39,2.517c-0.006,0.063-0.012,0.126-0.018,0.189c-0.022,0.235-0.044,0.471-0.067,0.707 c-0.047,0.5-0.094,1.001-0.141,1.501c-0.151,1.608-0.086,3.235-0.033,4.845c0.059,1.776,0.254,3.083,0.5,4.673 c0.237,1.533,0.592,3.045,1.026,4.534c0.22,0.752,0.438,1.493,0.703,2.229c0.187,0.521,0.374,1.041,0.561,1.562 c0.025,0.069,0.035,0.098,0.036,0.106c0,0.001,0,0.001,0,0.001c0.077,0.18,0.154,0.36,0.231,0.541 c0.629,1.471,1.271,2.939,2.086,4.32c0.415,0.704,0.798,1.443,1.256,2.119c0.295,0.436,0.589,0.869,0.884,1.305 c0.133,0.195,0.266,0.393,0.399,0.588c0.075,0.111,0.134,0.195,0.101,0.155c1.055,1.361,2.131,2.66,3.273,3.949 c1.087,1.228,2.357,2.304,3.583,3.387c0.099,0.087,0.32,0.274,0.175,0.163c0.136,0.104,0.271,0.209,0.406,0.313 c0.431,0.333,0.861,0.665,1.291,0.997c0.627,0.485,1.294,0.918,1.949,1.365c1.286,0.881,2.656,1.631,4.045,2.335 c0.698,0.354,1.39,0.684,2.108,0.996c0.455,0.197,0.911,0.396,1.366,0.593c-0.118-0.051-0.013-0.009,0.137,0.045 c0.223,0.081,0.447,0.161,0.67,0.242c1.477,0.534,2.969,1.048,4.504,1.395c0.782,0.177,1.564,0.394,2.357,0.516 c0.563,0.087,1.127,0.174,1.691,0.261c0.195,0.03,0.39,0.061,0.585,0.09c0.004,0.001,0.007,0.001,0.011,0.002 c0.017,0.001,0.046,0.004,0.096,0.008c1.693,0.159,3.362,0.261,5.062,0.317c1.377,0,2.755,0,4.132,0c9.718,0,19.436,0,29.154,0 c16.491,0,32.982,0,49.474,0c20.251,0,40.502,0,60.753,0c20.997,0,41.993,0,62.99,0c18.729,0,37.459,0,56.188,0 c13.448,0,26.896,0,40.343,0c5.152,0,10.305,0,15.457,0c1.057-0.035,2.116-0.041,3.17-0.139c0.685-0.064,1.368-0.128,2.053-0.191 c-0.267,0.024,0.435-0.07,0.544-0.087c0.37-0.058,0.741-0.115,1.112-0.173c2.08-0.322,4.205-0.827,6.187-1.544 c0.543-0.196,1.086-0.393,1.63-0.589c0.146-0.053,0.293-0.105,0.44-0.159c0.024-0.009,0.092-0.035,0.174-0.071 c0.754-0.327,1.538-0.617,2.271-0.991c1.527-0.78,3.004-1.595,4.481-2.465c0.714-0.42,1.384-0.939,2.069-1.405 c0.061-0.041,0.082-0.055,0.087-0.056c0.013-0.011,0.029-0.023,0.052-0.041c0.172-0.134,0.344-0.269,0.516-0.401 c0.412-0.321,0.823-0.643,1.235-0.963c1.261-0.982,2.398-2.111,3.526-3.238c1.104-1.104,2.1-2.311,3.054-3.544 c0.185-0.239,0.37-0.479,0.556-0.718c0.036-0.047,0.281-0.393,0.128-0.167c0.229-0.337,0.457-0.675,0.686-1.012 c0.438-0.646,0.861-1.287,1.261-1.956c0.808-1.352,1.588-2.725,2.217-4.17c0.232-0.535,0.465-1.068,0.698-1.604 c0.057-0.131,0.113-0.262,0.17-0.392c-0.11,0.255,0.043-0.144,0.063-0.2c0.271-0.767,0.578-1.529,0.806-2.312 c0.471-1.61,0.997-3.244,1.265-4.905c0.138-0.853,0.275-1.705,0.412-2.557c-0.03,0.19,0.007-0.097,0.02-0.232 c0.023-0.252,0.047-0.504,0.071-0.756c0.044-0.475,0.089-0.949,0.134-1.425c0.152-1.618,0.063-3.278,0.02-4.899 C400.73,38.198,400.633,37.413,400.559,36.627z" fill="#a6a6a6"/></g></svg>